<?xml version="1.0" encoding="UTF-8"?>
<svg xmlns="http://www.w3.org/2000/svg" xmlns:xlink="http://www.w3.org/1999/xlink" width="80px" height="80px" viewBox="0 0 80 80" version="1.1">
<g id="surface1">
<path style=" stroke:none;fill-rule:nonzero;fill:rgb(0%,0%,0%);fill-opacity:1;" d="M 37.3125 10.609375 C 35.789062 10.777344 33.464844 11.160156 33.132812 11.289062 C 33.007812 11.34375 32.65625 11.449219 32.355469 11.515625 C 32.066406 11.589844 31.726562 11.671875 31.609375 11.726562 C 31.492188 11.769531 31.203125 11.867188 30.96875 11.929688 C 30.277344 12.144531 29.0625 12.613281 28.945312 12.707031 C 28.890625 12.75 28.785156 12.792969 28.71875 12.792969 C 28.570312 12.792969 26.160156 13.933594 25.640625 14.253906 C 25.46875 14.359375 24.722656 14.828125 23.988281 15.308594 C 20.148438 17.792969 16.886719 21.203125 14.476562 25.265625 C 13.527344 26.867188 11.832031 30.757812 11.832031 31.332031 C 11.832031 31.449219 11.792969 31.566406 11.75 31.597656 C 11.695312 31.632812 11.597656 31.929688 11.515625 32.269531 C 11.4375 32.613281 11.3125 33.125 11.238281 33.421875 C 11.023438 34.222656 10.769531 35.820312 10.597656 37.367188 C 10.148438 41.597656 10.757812 46.355469 12.3125 50.640625 C 12.761719 51.867188 14.191406 54.753906 14.902344 55.886719 C 17.121094 59.390625 20.019531 62.460938 23.15625 64.625 C 23.847656 65.105469 26.183594 66.523438 26.28125 66.523438 C 26.300781 66.523438 26.554688 66.664062 26.832031 66.824219 C 27.761719 67.367188 30.375 68.390625 31.984375 68.828125 C 33.113281 69.148438 33.328125 69.191406 34.703125 69.457031 C 36.554688 69.808594 38.070312 69.9375 40.246094 69.9375 C 42.984375 69.9375 43.976562 69.820312 47.644531 69.074219 C 48.082031 68.988281 50.449219 68.21875 50.90625 68.027344 C 51.023438 67.972656 51.523438 67.761719 52.027344 67.558594 C 52.527344 67.34375 53.144531 67.058594 53.410156 66.917969 C 57.101562 64.945312 59.007812 63.550781 61.546875 60.9375 C 64.660156 57.75 67.078125 53.773438 68.433594 49.625 C 69.007812 47.835938 69.082031 47.578125 69.390625 45.917969 C 69.457031 45.585938 69.550781 45.054688 69.617188 44.742188 C 70.0625 42.421875 70.019531 37.941406 69.519531 35.128906 C 68.636719 30.019531 66.289062 24.957031 63.070312 21.160156 C 61.3125 19.09375 58.976562 16.984375 57.003906 15.683594 C 55.085938 14.414062 54.871094 14.296875 53.359375 13.550781 C 51.566406 12.675781 50.351562 12.183594 48.773438 11.738281 C 48.132812 11.554688 47.386719 11.34375 47.121094 11.257812 C 46.597656 11.085938 44.210938 10.734375 42.453125 10.554688 C 41.042969 10.414062 38.878906 10.4375 37.3125 10.609375 Z M 42.484375 18.847656 C 44.457031 19.074219 47.015625 19.796875 48.871094 20.671875 C 49.382812 20.90625 49.828125 21.109375 49.863281 21.109375 C 49.894531 21.109375 50.085938 21.238281 50.289062 21.386719 C 50.480469 21.535156 50.894531 21.769531 51.203125 21.910156 C 52.28125 22.386719 53.507812 23.367188 55.457031 25.320312 C 57.601562 27.453125 59.59375 30.585938 60.085938 32.558594 C 60.179688 32.921875 60.320312 33.359375 60.40625 33.550781 C 60.492188 33.730469 60.542969 34.0625 60.53125 34.296875 L 60.523438 34.703125 L 60.480469 34.328125 C 60.449219 34.125 60.351562 33.839844 60.246094 33.6875 C 60.136719 33.539062 59.734375 32.75 59.339844 31.929688 C 57.933594 29.039062 57.21875 27.996094 55.289062 26.054688 C 54.390625 25.171875 53.636719 24.519531 52.824219 23.976562 C 52.183594 23.550781 51.417969 23.015625 51.121094 22.804688 C 50.832031 22.589844 50.375 22.335938 50.105469 22.25 C 49.839844 22.152344 49.074219 21.898438 48.402344 21.664062 C 43.101562 19.820312 38.945312 19.679688 34.273438 21.183594 C 33.804688 21.332031 33.378906 21.492188 33.316406 21.535156 C 33.261719 21.578125 32.921875 21.714844 32.570312 21.855469 C 29.691406 22.984375 26.640625 25.222656 24.414062 27.835938 C 24.09375 28.207031 23.804688 28.539062 23.761719 28.570312 C 23.730469 28.601562 23.433594 28.988281 23.113281 29.425781 C 21.949219 30.992188 20.554688 34.050781 20 36.246094 C 19.660156 37.578125 19.476562 42.195312 19.710938 43.464844 C 19.765625 43.742188 19.863281 44.308594 19.9375 44.722656 C 20.277344 46.707031 21.226562 49.136719 22.472656 51.238281 C 24.039062 53.871094 25.714844 55.628906 28.550781 57.613281 C 29.328125 58.15625 31.3125 59.167969 32.410156 59.59375 C 32.910156 59.777344 33.410156 59.980469 33.527344 60.019531 C 33.828125 60.136719 35.234375 60.523438 35.875 60.660156 C 37.996094 61.128906 40.511719 61.300781 42.269531 61.097656 C 45.9375 60.671875 49.230469 59.445312 52.28125 57.355469 C 52.921875 56.917969 53.539062 56.492188 53.667969 56.40625 C 53.785156 56.320312 53.996094 56.152344 54.125 56.035156 C 54.265625 55.925781 54.402344 55.863281 54.445312 55.90625 C 54.574219 56.035156 53.207031 57.269531 52.132812 58.007812 C 51.128906 58.699219 49.457031 59.703125 49.328125 59.703125 C 49.285156 59.703125 48.890625 59.871094 48.445312 60.074219 C 47.355469 60.574219 45.117188 61.238281 43.496094 61.523438 C 42.355469 61.738281 41.78125 61.769531 39.5 61.78125 C 36.632812 61.78125 36.097656 61.726562 34.007812 61.183594 C 31.941406 60.648438 31.632812 60.542969 30.0625 59.765625 C 28.144531 58.796875 25.363281 56.8125 23.933594 55.382812 C 19.808594 51.257812 17.503906 45.351562 17.730469 39.445312 C 17.824219 37.132812 18.285156 34.96875 19.242188 32.429688 C 19.9375 30.574219 20.640625 29.359375 22.441406 26.917969 C 24.457031 24.191406 28.144531 21.460938 31.503906 20.222656 C 33.058594 19.648438 35.277344 19.082031 36.726562 18.878906 C 38.335938 18.65625 40.640625 18.644531 42.484375 18.847656 Z M 35.265625 27.570312 C 35.289062 27.6875 35.203125 28.007812 35.085938 28.285156 L 34.871094 28.785156 L 35.585938 28.785156 C 36.480469 28.785156 37.460938 29.03125 37.972656 29.382812 C 38.519531 29.765625 38.753906 30.289062 38.753906 31.128906 C 38.753906 32.144531 38.304688 33.007812 37.183594 34.125 C 36.4375 34.871094 36.34375 35.011719 36.503906 35.097656 C 36.597656 35.148438 36.867188 35.351562 37.078125 35.53125 C 38.144531 36.460938 38.402344 36.972656 38.464844 38.378906 C 38.539062 40.105469 38.144531 41.257812 36.917969 42.910156 C 35.726562 44.507812 34.351562 45.640625 32.515625 46.515625 C 29.476562 47.964844 27.003906 47.996094 25.554688 46.609375 C 25.265625 46.332031 25.097656 46.023438 24.945312 45.554688 C 24.742188 44.902344 24.742188 44.882812 24.957031 44.113281 C 25.191406 43.285156 25.820312 42.292969 26.480469 41.707031 C 26.886719 41.355469 26.972656 41.152344 26.714844 41.152344 C 26.632812 41.152344 26.40625 41.003906 26.226562 40.832031 L 25.875 40.5 L 25.9375 39.519531 C 26.011719 38.261719 26.386719 37.25 27.410156 35.554688 C 28.945312 32.996094 30.480469 31.320312 32.484375 30.019531 C 33.390625 29.425781 33.445312 29.359375 34.039062 28.347656 C 34.605469 27.378906 34.691406 27.28125 34.945312 27.3125 C 35.136719 27.335938 35.246094 27.421875 35.265625 27.570312 Z M 45.886719 27.570312 C 46.183594 27.6875 46.097656 28.285156 45.726562 28.636719 C 44.902344 29.414062 44.222656 30.640625 42.28125 34.785156 C 41.75 35.9375 41.769531 36.011719 42.570312 35.574219 C 43.785156 34.894531 45.246094 34.550781 45.703125 34.839844 C 45.9375 34.988281 46.054688 35.480469 45.925781 35.769531 C 45.777344 36.097656 45.351562 36.128906 45.257812 35.820312 C 45.214844 35.691406 45.097656 35.609375 44.957031 35.609375 C 44.574219 35.609375 41.503906 37.183594 41.214844 37.539062 C 40.96875 37.824219 40.296875 39.390625 40.296875 39.667969 C 40.296875 39.882812 40.628906 40.191406 40.851562 40.191406 C 40.96875 40.191406 41.160156 40.246094 41.28125 40.308594 C 41.398438 40.375 41.84375 40.425781 42.261719 40.425781 C 43.527344 40.414062 44.839844 39.980469 46.085938 39.136719 C 47.101562 38.453125 47.589844 37.941406 48.039062 37.101562 C 48.519531 36.183594 48.644531 36.035156 48.957031 36.035156 C 49.433594 36.035156 49.53125 36.289062 49.308594 36.972656 C 49.199219 37.304688 49.0625 37.644531 49.007812 37.71875 C 48.945312 37.792969 48.933594 37.890625 48.976562 37.921875 C 49.019531 37.964844 49.488281 37.558594 50.03125 37.035156 C 51.535156 35.566406 51.832031 35.296875 52.304688 35.074219 C 52.65625 34.902344 52.804688 34.882812 53.027344 34.96875 C 53.5625 35.171875 53.550781 35.800781 52.996094 36.714844 C 52.570312 37.429688 51.78125 39.019531 51.832031 39.074219 C 51.855469 39.105469 52.398438 38.859375 53.027344 38.527344 C 54.199219 37.921875 54.742188 37.792969 55.054688 38.050781 C 55.296875 38.25 55.265625 38.484375 54.902344 39.425781 C 54.445312 40.617188 54.402344 40.894531 54.667969 41.035156 C 55.042969 41.226562 55.4375 41.171875 56.226562 40.789062 C 57.183594 40.332031 58.273438 39.339844 58.933594 38.335938 C 59.457031 37.558594 59.753906 37.367188 60.011719 37.675781 C 60.222656 37.933594 59.710938 38.710938 58.59375 39.820312 C 57.804688 40.597656 57.429688 40.875 56.632812 41.289062 C 55.789062 41.714844 55.542969 41.792969 55.03125 41.792969 C 54.242188 41.792969 53.945312 41.632812 53.65625 41.066406 C 53.378906 40.511719 53.421875 40.011719 53.796875 39.425781 C 54.316406 38.613281 53.964844 38.496094 53.144531 39.199219 C 52.546875 39.710938 51.449219 40.222656 51.140625 40.128906 C 50.320312 39.882812 50.375 38.976562 51.3125 37.367188 C 51.554688 36.949219 51.832031 36.503906 51.941406 36.363281 C 52.046875 36.226562 52.132812 36.035156 52.132812 35.9375 C 52.132812 35.84375 52.101562 35.808594 52.046875 35.875 C 52.003906 35.925781 51.171875 36.757812 50.203125 37.707031 C 48.636719 39.242188 48.390625 39.445312 48.082031 39.445312 C 47.878906 39.445312 47.675781 39.371094 47.601562 39.265625 C 47.472656 39.09375 47.410156 39.113281 46.84375 39.507812 C 46.492188 39.742188 45.925781 40.0625 45.574219 40.214844 C 44.230469 40.800781 43.945312 40.863281 42.484375 40.875 C 41.269531 40.875 41.042969 40.84375 40.628906 40.640625 C 40.363281 40.511719 40.117188 40.40625 40.0625 40.40625 C 39.957031 40.40625 39.765625 40.820312 39.390625 41.898438 C 39.105469 42.707031 38.679688 43.773438 38.464844 44.210938 C 38.316406 44.519531 37.941406 44.53125 37.6875 44.242188 C 37.527344 44.0625 37.515625 43.964844 37.613281 43.527344 C 37.730469 42.984375 38.601562 40.585938 38.859375 40.085938 C 38.945312 39.914062 39.050781 39.445312 39.082031 39.03125 C 39.148438 38.367188 39.210938 38.199219 39.574219 37.707031 C 40.160156 36.929688 40.609375 36.085938 41.289062 34.542969 C 41.867188 33.207031 42.761719 31.449219 43.242188 30.683594 C 43.378906 30.457031 43.496094 30.257812 43.496094 30.234375 C 43.496094 30.148438 44.667969 28.21875 44.957031 27.847656 C 45.214844 27.515625 45.5 27.421875 45.886719 27.570312 Z M 50.0625 51.097656 C 50.257812 51.621094 50.4375 51.941406 50.566406 51.984375 C 50.671875 52.015625 50.746094 52.121094 50.726562 52.21875 C 50.691406 52.355469 50.566406 52.398438 50.160156 52.398438 C 49.636719 52.398438 49.625 52.386719 49.625 52.078125 C 49.617188 51.75 49.414062 51.621094 49.074219 51.75 C 48.945312 51.800781 48.933594 51.84375 49.039062 51.972656 C 49.253906 52.226562 49.082031 52.453125 48.667969 52.453125 C 48.230469 52.453125 48.039062 52.183594 48.328125 51.972656 C 48.421875 51.910156 48.679688 51.449219 48.878906 50.949219 C 49.09375 50.457031 49.316406 50.019531 49.390625 49.980469 C 49.550781 49.882812 49.691406 50.105469 50.0625 51.097656 Z M 29.457031 50.0625 C 29.808594 50.128906 29.851562 50.171875 29.851562 50.4375 C 29.851562 50.808594 29.625 50.84375 29.316406 50.53125 C 29.0625 50.277344 28.804688 50.257812 28.710938 50.492188 C 28.636719 50.691406 28.847656 50.851562 29.191406 50.851562 C 29.777344 50.851562 30.191406 51.792969 29.777344 52.152344 C 29.542969 52.34375 28.816406 52.472656 28.730469 52.335938 C 28.6875 52.28125 28.550781 52.269531 28.421875 52.304688 C 28.144531 52.367188 28.015625 52.175781 28.113281 51.824219 C 28.1875 51.546875 28.261719 51.546875 28.613281 51.824219 C 28.945312 52.089844 29.425781 52.027344 29.425781 51.726562 C 29.425781 51.597656 29.253906 51.480469 28.871094 51.34375 C 28.5625 51.238281 28.273438 51.085938 28.230469 51.023438 C 28.082031 50.808594 28.144531 50.5 28.378906 50.246094 C 28.625 49.988281 28.796875 49.957031 29.457031 50.0625 Z M 34.308594 50.394531 C 34.351562 50.808594 34.113281 50.875 33.878906 50.511719 C 33.773438 50.351562 33.667969 50.308594 33.527344 50.351562 C 33.347656 50.425781 33.335938 50.777344 33.476562 51.992188 C 33.476562 52.015625 33.5625 52.027344 33.667969 52.027344 C 33.773438 52.027344 33.871094 52.101562 33.871094 52.183594 C 33.871094 52.3125 33.710938 52.34375 33.132812 52.34375 C 32.589844 52.34375 32.410156 52.3125 32.410156 52.195312 C 32.410156 52.121094 32.503906 52.027344 32.621094 51.992188 C 32.816406 51.941406 32.835938 51.84375 32.835938 51.128906 C 32.835938 50.394531 32.816406 50.320312 32.621094 50.320312 C 32.515625 50.320312 32.367188 50.414062 32.304688 50.53125 C 32.152344 50.800781 31.875 50.808594 31.875 50.542969 C 31.875 50.019531 31.941406 49.988281 33.144531 50.019531 L 34.273438 50.054688 Z M 38.402344 50.375 C 38.519531 50.808594 38.367188 50.894531 38.027344 50.574219 C 37.664062 50.234375 37.046875 50.246094 37.046875 50.585938 C 37.046875 50.757812 37.109375 50.800781 37.386719 50.777344 C 37.773438 50.746094 37.890625 50.863281 37.792969 51.171875 C 37.730469 51.355469 37.664062 51.386719 37.355469 51.320312 C 37.003906 51.257812 36.992188 51.269531 36.992188 51.578125 C 36.992188 51.941406 37.175781 52.046875 37.644531 51.949219 C 37.847656 51.910156 38.015625 51.78125 38.125 51.578125 C 38.347656 51.140625 38.582031 51.332031 38.496094 51.886719 C 38.421875 52.34375 38.242188 52.421875 37.132812 52.441406 C 36.289062 52.453125 35.96875 52.324219 36.28125 52.089844 C 36.523438 51.898438 36.554688 50.320312 36.300781 50.320312 C 36.214844 50.320312 36.140625 50.246094 36.140625 50.160156 C 36.140625 50.019531 36.3125 50 37.226562 50.019531 L 38.316406 50.054688 Z M 41.578125 50.148438 C 41.578125 50.222656 41.480469 50.320312 41.363281 50.351562 C 41.160156 50.40625 41.140625 50.480469 41.171875 51.195312 C 41.203125 51.949219 41.214844 51.972656 41.492188 52.003906 C 41.726562 52.035156 41.8125 51.984375 41.886719 51.792969 C 41.941406 51.652344 42.058594 51.472656 42.152344 51.398438 C 42.304688 51.269531 42.324219 51.3125 42.324219 51.800781 C 42.324219 52.421875 42.421875 52.378906 41.066406 52.367188 C 40.640625 52.367188 40.257812 52.34375 40.234375 52.3125 C 40.203125 52.292969 40.257812 52.183594 40.351562 52.101562 C 40.585938 51.867188 40.585938 50.375 40.339844 50.277344 C 40.011719 50.148438 40.332031 50 40.949219 50 C 41.417969 50 41.578125 50.042969 41.578125 50.148438 Z M 45.523438 50.148438 C 45.523438 50.222656 45.425781 50.320312 45.308594 50.351562 C 45.105469 50.40625 45.085938 50.480469 45.117188 51.195312 C 45.148438 51.898438 45.171875 51.972656 45.375 52.003906 C 45.53125 52.027344 45.703125 51.910156 45.925781 51.640625 C 46.203125 51.3125 46.269531 51.269531 46.332031 51.417969 C 46.40625 51.632812 46.300781 52.121094 46.140625 52.3125 C 46.066406 52.410156 45.734375 52.453125 45.179688 52.453125 C 44.488281 52.453125 44.328125 52.421875 44.273438 52.269531 C 44.230469 52.175781 44.265625 52.066406 44.328125 52.046875 C 44.488281 51.992188 44.507812 50.320312 44.351562 50.320312 C 44.296875 50.320312 44.242188 50.246094 44.242188 50.160156 C 44.242188 50.03125 44.382812 50 44.882812 50 C 45.351562 50 45.523438 50.042969 45.523438 50.148438 Z M 54.5625 50.203125 C 54.828125 50.425781 54.851562 50.554688 54.667969 50.84375 C 54.585938 50.980469 54.574219 51.183594 54.648438 51.503906 C 54.722656 51.875 54.796875 51.984375 54.988281 52.003906 C 55.320312 52.058594 55.289062 52.324219 54.9375 52.410156 C 54.476562 52.527344 54.113281 52.261719 54.050781 51.757812 C 54.007812 51.417969 53.945312 51.320312 53.761719 51.300781 C 53.5625 51.269531 53.519531 51.3125 53.519531 51.554688 C 53.519531 51.714844 53.59375 51.941406 53.699219 52.046875 C 53.921875 52.292969 53.847656 52.355469 53.261719 52.421875 C 52.867188 52.472656 52.761719 52.441406 52.707031 52.304688 C 52.664062 52.195312 52.6875 52.066406 52.761719 51.992188 C 52.910156 51.84375 52.921875 50.320312 52.773438 50.320312 C 52.71875 50.320312 52.664062 50.246094 52.664062 50.160156 C 52.664062 49.902344 54.265625 49.9375 54.5625 50.203125 Z M 54.5625 50.203125 "/>
<path style=" stroke:none;fill-rule:nonzero;fill:rgb(0%,0%,0%);fill-opacity:1;" d="M 36.757812 19.476562 C 36.832031 19.507812 36.929688 19.5 36.960938 19.46875 C 37.003906 19.433594 36.941406 19.402344 36.824219 19.414062 C 36.707031 19.414062 36.671875 19.445312 36.757812 19.476562 Z M 36.757812 19.476562 "/>
<path style=" stroke:none;fill-rule:nonzero;fill:rgb(0%,0%,0%);fill-opacity:1;" d="M 35.128906 19.722656 C 34.820312 19.796875 34.828125 19.808594 35.234375 19.808594 C 35.46875 19.808594 35.777344 19.765625 35.925781 19.722656 C 36.171875 19.648438 36.160156 19.636719 35.820312 19.636719 C 35.617188 19.636719 35.308594 19.679688 35.128906 19.722656 Z M 35.128906 19.722656 "/>
<path style=" stroke:none;fill-rule:nonzero;fill:rgb(0%,0%,0%);fill-opacity:1;" d="M 33.347656 20.222656 C 33.410156 20.246094 33.539062 20.246094 33.613281 20.222656 C 33.679688 20.191406 33.625 20.171875 33.476562 20.171875 C 33.328125 20.171875 33.273438 20.191406 33.347656 20.222656 Z M 33.347656 20.222656 "/>
<path style=" stroke:none;fill-rule:nonzero;fill:rgb(0%,0%,0%);fill-opacity:1;" d="M 32.816406 20.4375 C 32.890625 20.46875 32.984375 20.457031 33.015625 20.425781 C 33.058594 20.394531 32.996094 20.363281 32.878906 20.375 C 32.761719 20.375 32.730469 20.40625 32.816406 20.4375 Z M 32.816406 20.4375 "/>
<path style=" stroke:none;fill-rule:nonzero;fill:rgb(0%,0%,0%);fill-opacity:1;" d="M 32.089844 20.683594 C 31.992188 20.746094 31.984375 20.789062 32.058594 20.789062 C 32.121094 20.789062 32.21875 20.734375 32.25 20.683594 C 32.335938 20.554688 32.292969 20.554688 32.089844 20.683594 Z M 32.089844 20.683594 "/>
<path style=" stroke:none;fill-rule:nonzero;fill:rgb(0%,0%,0%);fill-opacity:1;" d="M 25.703125 25.449219 C 25.609375 25.609375 25.574219 25.617188 25.492188 25.492188 C 25.351562 25.289062 25 25.554688 23.902344 26.695312 C 22.792969 27.847656 22.132812 28.859375 22.335938 29.074219 C 22.632812 29.359375 22.964844 29.148438 23.570312 28.25 C 23.796875 27.921875 24.519531 27.089844 25.339844 26.203125 C 25.640625 25.886719 25.9375 25.375 25.863281 25.296875 C 25.84375 25.265625 25.769531 25.339844 25.703125 25.449219 Z M 25.703125 25.449219 "/>
<path style=" stroke:none;fill-rule:nonzero;fill:rgb(0%,0%,0%);fill-opacity:1;" d="M 35.074219 29.648438 C 34.433594 29.9375 34.253906 30.117188 33.957031 30.757812 C 33.828125 31.042969 33.519531 31.695312 33.285156 32.195312 C 33.058594 32.695312 32.707031 33.433594 32.515625 33.847656 C 31.664062 35.703125 30.648438 37.539062 29.777344 38.796875 C 29.519531 39.167969 29.339844 39.5 29.371094 39.53125 C 29.402344 39.5625 29.5625 39.507812 29.734375 39.414062 C 31.121094 38.59375 33.496094 37.644531 33.839844 37.773438 C 33.957031 37.816406 34.007812 37.933594 33.988281 38.082031 C 33.964844 38.285156 33.71875 38.421875 32.621094 38.871094 C 30 39.9375 28.601562 40.769531 27.34375 42.046875 C 26.398438 42.996094 25.691406 44.167969 25.691406 44.785156 C 25.691406 45.375 26.097656 46.011719 26.671875 46.320312 C 27.152344 46.589844 27.261719 46.597656 28.378906 46.566406 C 29.902344 46.515625 30.5 46.355469 32.355469 45.46875 C 34.007812 44.691406 35.554688 43.347656 36.578125 41.792969 C 37.441406 40.492188 37.675781 39.828125 37.675781 38.636719 C 37.675781 37.78125 37.644531 37.601562 37.367188 37.035156 C 37.003906 36.332031 36.523438 35.9375 35.734375 35.734375 C 34.667969 35.449219 34.703125 35.46875 34.703125 35.074219 C 34.703125 34.742188 34.777344 34.648438 35.53125 34.082031 C 37.109375 32.898438 37.816406 31.984375 37.921875 30.96875 C 38.050781 29.777344 36.449219 29.039062 35.074219 29.648438 Z M 35.074219 29.648438 "/>
<path style=" stroke:none;fill-rule:nonzero;fill:rgb(0%,0%,0%);fill-opacity:1;" d="M 32.175781 31.097656 C 29.734375 33.089844 27.484375 36.355469 26.800781 38.890625 C 26.417969 40.332031 26.75 40.574219 27.71875 39.574219 C 28.644531 38.625 29.667969 36.960938 31.128906 34.0625 C 32.730469 30.875 32.761719 30.808594 32.632812 30.808594 C 32.578125 30.808594 32.378906 30.9375 32.175781 31.097656 Z M 32.175781 31.097656 "/>
<path style=" stroke:none;fill-rule:nonzero;fill:rgb(0%,0%,0%);fill-opacity:1;" d="M 49.148438 51.121094 C 49.148438 51.300781 49.242188 51.320312 49.445312 51.183594 C 49.5625 51.109375 49.550781 51.078125 49.414062 51.023438 C 49.167969 50.925781 49.148438 50.9375 49.148438 51.121094 Z M 49.148438 51.121094 "/>
<path style=" stroke:none;fill-rule:nonzero;fill:rgb(0%,0%,0%);fill-opacity:1;" d="M 53.59375 50.394531 C 53.550781 50.425781 53.519531 50.554688 53.519531 50.660156 C 53.519531 50.875 53.988281 50.9375 54.105469 50.746094 C 54.253906 50.511719 53.785156 50.191406 53.59375 50.394531 Z M 53.59375 50.394531 "/>
</g>
</svg>
