<?xml version="1.0" standalone="no"?>
<!DOCTYPE svg PUBLIC "-//W3C//DTD SVG 20010904//EN"
 "http://www.w3.org/TR/2001/REC-SVG-20010904/DTD/svg10.dtd">
<svg version="1.0" xmlns="http://www.w3.org/2000/svg"
 width="750.000000pt" height="750.000000pt" viewBox="0 0 750.000000 750.000000"
 preserveAspectRatio="xMidYMid meet">

<g transform="translate(0.000000,750.000000) scale(0.100000,-0.100000)"
fill="#000000" stroke="none">
<path d="M3500 6505 c-143 -16 -361 -52 -392 -64 -12 -5 -45 -15 -73 -21 -27
-7 -59 -15 -70 -20 -11 -4 -38 -13 -60 -19 -65 -20 -179 -64 -190 -73 -5 -4
-15 -8 -21 -8 -14 0 -240 -107 -289 -137 -16 -10 -86 -54 -155 -99 -360 -233
-666 -553 -892 -934 -89 -150 -248 -515 -248 -569 0 -11 -4 -22 -8 -25 -5 -3
-14 -31 -22 -63 -7 -32 -19 -80 -26 -108 -20 -75 -44 -225 -60 -370 -42 -397
15 -843 161 -1245 42 -115 176 -386 243 -492 208 -329 480 -617 774 -820 65
-45 284 -178 293 -178 2 0 26 -13 52 -28 87 -51 332 -147 483 -188 106 -30
126 -34 255 -59 174 -33 316 -45 520 -45 257 0 350 11 694 81 41 8 263 80 306
98 11 5 58 25 105 44 47 20 105 47 130 60 346 185 525 316 763 561 292 299
519 672 646 1061 54 168 61 192 90 348 6 31 15 81 21 110 42 218 38 638 -9
902 -83 479 -303 954 -605 1310 -165 194 -384 392 -569 514 -180 119 -200 130
-342 200 -168 82 -282 128 -430 170 -60 17 -130 37 -155 45 -49 16 -273 49
-438 66 -132 13 -335 11 -482 -5z m485 -773 c185 -21 425 -89 599 -171 48 -22
90 -41 93 -41 3 0 21 -12 40 -26 18 -14 57 -36 86 -49 101 -45 216 -137 399
-320 201 -200 388 -494 434 -679 9 -34 22 -75 30 -93 8 -17 13 -48 12 -70 l-1
-38 -4 35 c-3 19 -12 46 -22 60 -10 14 -48 88 -85 165 -132 271 -199 369 -380
551 -84 83 -155 144 -231 195 -60 40 -132 90 -160 110 -27 20 -70 44 -95 52
-25 9 -97 33 -160 55 -497 173 -887 186 -1325 45 -44 -14 -84 -29 -90 -33 -5
-4 -37 -17 -70 -30 -270 -106 -556 -316 -765 -561 -30 -35 -57 -66 -61 -69 -3
-3 -31 -39 -61 -80 -109 -147 -240 -434 -292 -640 -32 -125 -49 -558 -27 -677
5 -26 14 -79 21 -118 32 -186 121 -414 238 -611 147 -247 304 -412 570 -598
73 -51 259 -146 362 -186 47 -17 94 -36 105 -40 28 -11 160 -47 220 -60 199
-44 435 -60 600 -41 344 40 653 155 939 351 60 41 118 81 130 89 11 8 31 24
43 35 13 10 26 16 30 12 12 -12 -116 -128 -217 -197 -94 -65 -251 -159 -263
-159 -4 0 -41 -16 -83 -35 -102 -47 -312 -109 -464 -136 -107 -20 -161 -23
-375 -24 -269 0 -319 5 -515 56 -194 50 -223 60 -370 133 -180 91 -441 277
-575 411 -387 387 -603 941 -582 1495 9 217 52 420 142 658 65 174 131 288
300 517 189 256 535 512 850 628 146 54 354 107 490 126 151 21 367 22 540 3z
m-677 -818 c2 -11 -6 -41 -17 -67 l-20 -47 67 0 c84 0 176 -23 224 -56 51 -36
73 -85 73 -164 0 -95 -42 -176 -147 -281 -70 -70 -79 -83 -64 -91 9 -5 34 -24
54 -41 100 -87 124 -135 130 -267 7 -162 -30 -270 -145 -425 -112 -150 -241
-256 -413 -338 -285 -136 -517 -139 -653 -9 -27 26 -43 55 -57 99 -19 61 -19
63 1 135 22 78 81 171 143 226 38 33 46 52 22 52 -8 0 -29 14 -46 30 l-33 31
6 92 c7 118 42 213 138 372 144 240 288 397 476 519 85 56 90 62 146 157 53
91 61 100 85 97 18 -2 28 -10 30 -24z m996 0 c28 -11 20 -67 -15 -100 -77 -73
-141 -188 -323 -577 -50 -108 -48 -115 27 -74 114 64 251 96 294 69 22 -14 33
-60 21 -87 -14 -31 -54 -34 -63 -5 -4 12 -15 20 -28 20 -36 0 -324 -148 -351
-181 -23 -27 -86 -174 -86 -200 0 -20 31 -49 52 -49 11 0 29 -5 40 -11 11 -6
53 -11 92 -11 119 1 242 42 359 121 95 64 141 112 183 191 45 86 57 100 86
100 45 0 54 -24 33 -88 -10 -31 -23 -63 -28 -70 -6 -7 -7 -16 -3 -19 4 -4 48
34 99 83 141 138 169 163 213 184 33 16 47 18 68 10 50 -19 49 -78 -3 -164
-40 -67 -114 -216 -109 -221 2 -3 53 20 112 51 110 57 161 69 190 45 23 -19
20 -41 -14 -129 -43 -112 -47 -138 -22 -151 35 -18 72 -13 146 23 90 43 192
136 254 230 49 73 77 91 101 62 20 -24 -28 -97 -133 -201 -74 -73 -109 -99
-184 -138 -79 -40 -102 -47 -150 -47 -74 0 -102 15 -129 68 -26 52 -22 99 13
154 49 76 16 87 -61 21 -56 -48 -159 -96 -188 -87 -77 23 -72 108 16 259 23
39 49 81 59 94 10 13 18 31 18 40 0 9 -3 12 -8 6 -4 -5 -82 -83 -173 -172
-147 -144 -170 -163 -199 -163 -19 0 -38 7 -45 17 -12 16 -18 14 -71 -23 -33
-22 -86 -52 -119 -66 -126 -55 -153 -61 -290 -62 -114 0 -135 3 -174 22 -25
12 -48 22 -53 22 -10 0 -28 -39 -63 -140 -27 -76 -67 -176 -87 -217 -14 -29
-49 -30 -73 -3 -15 17 -16 26 -7 67 11 51 93 276 117 323 8 16 18 60 21 99 6
62 12 78 46 124 55 73 97 152 161 297 54 125 138 290 183 362 13 21 24 40 24
42 0 8 110 189 137 224 24 31 51 40 87 26z m392 -2207 c18 -49 35 -79 47 -83
10 -3 17 -13 15 -22 -3 -13 -15 -17 -53 -17 -49 0 -50 1 -50 30 -1 31 -20 43
-52 31 -12 -5 -13 -9 -3 -21 20 -24 4 -45 -35 -45 -41 0 -59 25 -32 45 9 6 33
49 52 96 20 46 41 87 48 91 15 9 28 -12 63 -105z m-1933 97 c33 -6 37 -10 37
-35 0 -35 -21 -38 -50 -9 -24 24 -48 26 -57 4 -7 -19 13 -34 45 -34 55 0 94
-88 55 -122 -22 -18 -90 -30 -98 -17 -4 5 -17 6 -29 3 -26 -6 -38 12 -29 45 7
26 14 26 47 0 31 -25 76 -19 76 9 0 12 -16 23 -52 36 -29 10 -56 24 -60 30
-14 20 -8 49 14 73 23 24 39 27 101 17z m455 -31 c4 -39 -18 -45 -40 -11 -10
15 -20 19 -33 15 -17 -7 -18 -40 -5 -154 0 -2 8 -3 18 -3 10 0 19 -7 19 -15 0
-12 -15 -15 -69 -15 -51 0 -68 3 -68 14 0 7 9 16 20 19 18 5 20 14 20 81 0 69
-2 76 -20 76 -10 0 -24 -9 -30 -20 -14 -25 -40 -26 -40 -1 0 49 6 52 119 49
l106 -3 3 -32z m384 2 c11 -41 -3 -49 -35 -19 -34 32 -92 31 -92 -1 0 -16 6
-20 32 -18 36 3 47 -8 38 -37 -6 -17 -12 -20 -41 -14 -33 6 -34 5 -34 -24 0
-34 17 -44 61 -35 19 4 35 16 45 35 21 41 43 23 35 -29 -7 -43 -24 -50 -128
-52 -79 -1 -109 11 -80 33 23 18 26 166 2 166 -8 0 -15 7 -15 15 0 13 16 15
102 13 l102 -3 8 -30z m298 21 c0 -7 -9 -16 -20 -19 -19 -5 -21 -12 -18 -79 3
-71 4 -73 30 -76 22 -3 30 2 37 20 5 13 16 30 25 37 14 12 16 8 16 -38 0 -58
9 -54 -118 -53 -40 0 -76 2 -78 5 -3 2 2 12 11 20 22 22 22 162 -1 171 -31 12
-1 26 57 26 44 0 59 -4 59 -14z m370 0 c0 -7 -9 -16 -20 -19 -19 -5 -21 -12
-18 -79 3 -66 5 -73 24 -76 15 -2 31 9 52 34 26 31 32 35 38 21 7 -20 -3 -66
-18 -84 -7 -9 -38 -13 -90 -13 -65 0 -80 3 -85 17 -4 9 -1 19 5 21 15 5 17
162 2 162 -5 0 -10 7 -10 15 0 12 13 15 60 15 44 0 60 -4 60 -14z m848 -5 c25
-21 27 -33 10 -60 -8 -13 -9 -32 -2 -62 7 -35 14 -45 32 -47 31 -5 28 -30 -5
-38 -43 -11 -77 14 -83 61 -4 32 -10 41 -27 43 -19 3 -23 -1 -23 -24 0 -15 7
-36 17 -46 21 -23 14 -29 -41 -35 -37 -5 -47 -2 -52 11 -4 10 -2 22 5 29 14
14 15 157 1 157 -5 0 -10 7 -10 15 0 24 150 21 178 -4z"/>
<path d="M3448 5673 c7 -3 16 -2 19 1 4 3 -2 6 -13 5 -11 0 -14 -3 -6 -6z"/>
<path d="M3295 5650 c-29 -7 -28 -8 10 -8 22 0 51 4 65 8 23 7 22 8 -10 8 -19
0 -48 -4 -65 -8z"/>
<path d="M3128 5603 c6 -2 18 -2 25 0 6 3 1 5 -13 5 -14 0 -19 -2 -12 -5z"/>
<path d="M3078 5583 c7 -3 16 -2 19 1 4 3 -2 6 -13 5 -11 0 -14 -3 -6 -6z"/>
<path d="M3010 5560 c-9 -6 -10 -10 -3 -10 6 0 15 5 18 10 8 12 4 12 -15 0z"/>
<path d="M2411 5113 c-9 -15 -12 -16 -20 -4 -13 19 -46 -6 -149 -113 -104
-108 -166 -203 -147 -223 28 -27 59 -7 116 77 21 31 89 109 166 192 28 30 56
78 49 85 -2 3 -9 -4 -15 -14z"/>
<path d="M3290 4719 c-60 -27 -77 -44 -105 -104 -12 -27 -41 -88 -63 -135 -21
-47 -54 -116 -72 -155 -80 -174 -175 -346 -257 -464 -24 -35 -41 -66 -38 -69
3 -3 18 2 34 11 130 77 353 166 385 154 11 -4 16 -15 14 -29 -2 -19 -25 -32
-128 -74 -246 -100 -377 -178 -495 -298 -89 -89 -155 -199 -155 -257 0 -55 38
-115 92 -144 45 -25 55 -26 160 -23 143 5 199 20 373 103 155 73 300 199 396
345 81 122 103 184 103 296 0 80 -3 97 -29 150 -34 66 -79 103 -153 122 -100
27 -97 25 -97 62 0 31 7 40 78 93 148 111 214 197 224 292 12 112 -138 181
-267 124z"/>
<path d="M3018 4583 c-229 -187 -440 -493 -504 -731 -36 -135 -5 -158 86 -64
87 89 183 245 320 517 150 299 153 305 141 305 -5 0 -24 -12 -43 -27z"/>
<path d="M4610 2705 c0 -17 9 -19 28 -6 11 7 10 10 -3 15 -23 9 -25 8 -25 -9z"/>
<path d="M5027 2773 c-4 -3 -7 -15 -7 -25 0 -20 44 -26 55 -8 14 22 -30 52
-48 33z"/>
</g>
</svg>
